<svg transform="scale(1)" id="_0500_coach" data-name="0500_coach" xmlns="http://www.w3.org/2000/svg" xmlns:xlink="http://www.w3.org/1999/xlink" viewBox="0 0 500 500" class="show_show__wrapper__graphic__5Waiy "><title>React</title><defs><style>.cls-1{fill:#ffc2a4;}.cls-2{fill:url(#linear-gradient);}.cls-3{fill:url(#linear-gradient-2);}.cls-4{fill:url(#linear-gradient-3);}.cls-5{fill:#e31d3f;}.cls-6{fill:#42210b;}.cls-7{fill:#fff;}.cls-8{fill:#ccc;}.cls-13,.cls-14,.cls-9{fill:#200904;}.cls-10{fill:#007f68;}.cls-11{fill:#f6afab;}.cls-12{fill:#fec64b;}.cls-13{opacity:0.1;}.cls-14{opacity:0.3;}</style><linearGradient id="linear-gradient" x1="271.39" y1="262.35" x2="288.93" y2="236.87" gradientUnits="userSpaceOnUse"><stop offset="0" stop-color="#ffc2a4"></stop><stop offset="1" stop-color="#dd6f31"></stop></linearGradient><linearGradient id="linear-gradient-2" x1="356.17" y1="350.03" x2="390.54" y2="328.78" xlink:href="#linear-gradient"></linearGradient><linearGradient id="linear-gradient-3" x1="246.26" y1="423.24" x2="280.98" y2="395.91" xlink:href="#linear-gradient"></linearGradient></defs><g id="background"><path class="cls-1" d="M242,432.62,19.28,301c-7.1-4-13.18-10.52-6.27-14.8L236.58,157.31c3.36-2.08,8.45-3.44,11.86-1.46L482.28,291.56c7.1,4.12,8.37,15.63,1.27,19.74L271.41,432.41A29.62,29.62,0,0,1,242,432.62Z"></path><polyline class="cls-2" points="333.97 266.59 295.6 286.16 223.09 237.35 254.21 221.4 274.17 211.85"></polyline><polyline class="cls-3" points="403.58 335.57 359.56 361.1 334.02 348.87 365.14 332.91 385.1 323.36"></polyline><path class="cls-4" d="M253.46,432.29l49.27-31.75L277.12,393l-51.43,24.64C234.74,423.91,243.82,427,253.46,432.29Z"></path></g><g id="clipboard"><path class="cls-5" d="M337.46,149.62l-1.5,112a5.55,5.55,0,0,1-8.3,4.74L255,225a5.55,5.55,0,0,1-2.81-4.82V102.43a3.13,3.13,0,0,1,4.69-2.71l77.8,45A5.54,5.54,0,0,1,337.46,149.62Z"></path><path class="cls-6" d="M274.05,109.65c.14.08,0,14.37,0,14.37l41.41,23.92V133.61Z"></path><polygon class="cls-7" points="261.37 117.35 328.14 155.95 328.14 249 261.37 212.31 261.37 117.35"></polygon><path class="cls-8" d="M269.17,146.82l14.75,7.88,23.41,12.5,5.42,2.9c2.11,1.12,4-2.08,1.88-3.21L299.87,159l-23.4-12.5-5.43-2.9c-2.11-1.13-4,2.08-1.87,3.21Z"></path><path class="cls-8" d="M269.17,164.56l14.75,7.88,23.41,12.5,5.42,2.9c2.11,1.12,4-2.08,1.88-3.21l-14.76-7.88-23.4-12.5-5.43-2.9c-2.11-1.12-4,2.08-1.87,3.21Z"></path><path class="cls-8" d="M269.17,182.3l14.75,7.88,23.41,12.5,5.42,2.9c2.11,1.13,4-2.08,1.88-3.21l-14.76-7.88L276.47,182l-5.43-2.9c-2.11-1.12-4,2.08-1.87,3.21Z"></path><path class="cls-8" d="M269.17,200l14.75,7.88,23.41,12.5,5.42,2.9c2.11,1.13,4-2.08,1.88-3.21l-14.76-7.88-23.4-12.5-5.43-2.9c-2.11-1.12-4,2.09-1.87,3.21Z"></path></g><g id="plant"><path class="cls-5" d="M283.83,357.17a39.67,39.67,0,0,0-8.29,27.28c1.11,15.93,10.07,20.55,10.07,20.55l10.67.6s12.7-4.14,11-24.86c-1.55-19.45-7.88-24-7.88-24"></path><ellipse class="cls-9" cx="291.69" cy="357.17" rx="7.86" ry="2.78"></ellipse><ellipse class="cls-5" cx="291.69" cy="403.31" rx="7.86" ry="2.78"></ellipse><path class="cls-10" d="M288.46,358,279,303.44c-.21-1.19-2-.68-1.81.5l9.51,54.57C286.86,359.69,288.67,359.19,288.46,358Z"></path><path class="cls-10" d="M290.19,358.19a2.34,2.34,0,0,1,.87,0,2,2,0,0,1,1,.59q1.14-22.86.41-45.76a.94.94,0,0,0-1.88,0Q291.3,335.63,290.19,358.19Z"></path><path class="cls-10" d="M311.57,305.24a501.64,501.64,0,0,0-18.37,52.43.94.94,0,0,0,1.81.5,500.84,500.84,0,0,1,18.37-52.43C313.84,304.62,312,304.14,311.57,305.24Z"></path><path class="cls-10" d="M281,326s-1-.13-5.52-4.85,1.18-8.27-1.42-13.59,1.06-12.29,1.89-17.6a24.61,24.61,0,0,0,3.94,10.39c3.39,4.85,5.28,9.22,4.92,15.36a54,54,0,0,1-2,11.46"></path><path class="cls-10" d="M290.61,334.36s-1-.37-4.17-6,3.15-7.74,1.92-13.52,4-11.67,6.12-16.62a24.61,24.61,0,0,0,1.29,11c2.11,5.52,2.88,10.22,1,16.09A54.11,54.11,0,0,1,292.1,336"></path><path class="cls-10" d="M304,324.54s-.87-.56-2.85-6.77,4.67-6.93,4.65-12.85,6.32-10.59,9.39-15a24.6,24.6,0,0,0-1,11.07c.93,5.84.72,10.6-2.28,16a54.55,54.55,0,0,1-6.79,9.44"></path></g><g id="character_1" data-name="character 1"><path class="cls-9" d="M342.56,193c-.9-1.42-42-36.06-42-36.06l-.8.84,41.37,36.73Z"></path><path class="cls-11" d="M347.55,196s-3.16-4-3.33-4.34-3.33-3.51-4.61-3-3.85,2.05-3.8,3,2.55.52,4-.16c0,0-1,3.63,1.36,6.19a9.91,9.91,0,0,0,6,2.82"></path><path class="cls-6" d="M377.18,317.45a4.27,4.27,0,0,1-.88,3.51c-1.32,1.43-6.38,5.91-6.86,6.88s-1.16,3.63,0,4.54,3.4,1,6.15,0,9.38-5.3,10.6-6.62,0-15,0-15-7.09-1.73-9.48,0Z"></path><path class="cls-6" d="M395.87,326.58a4.25,4.25,0,0,1-.88,3.5c-1.32,1.43-6.38,5.92-6.86,6.89s-1.16,3.62,0,4.54,3.4,1,6.15,0a49.2,49.2,0,0,0,10.61-6.63c1.22-1.33,0-15,0-15s-7.1-1.74-9.49,0Z"></path><path class="cls-5" d="M376.31,229.15s-3.62,16.07-3.86,31.1S374,315.64,374,315.64s4.16,4,13.31,2.6v-56s3.19,1.19,3.19,3.56,2.92,59.68,2.92,59.68,1.63,3,13.61-1.61c0,0,4.08-76-4.7-90.67"></path><path class="cls-6" d="M399.42,233.07c-2.11-.08-8,1.39-12,1.1a44,44,0,0,1-11.38-2c-.15-.71-.29-1.45-.39-2.27-2.66-20.52-1.95-34.92,0-38.17s13.61-5.82,18.93-4.35,13.3,7.66,13.3,7.66-2.19,17.42-6.09,29.8C400.69,228.29,400.69,228.29,399.42,233.07Z"></path><path class="cls-6" d="M386.09,189.31c-1.87.4-2.22-4.79-1.42-5.27s9.57-.53,10.93.07c3,1.31,0,5.7,0,5.7"></path><path class="cls-9" d="M397.36,167.63c-1.69-.3-1.64-3.12-4.77-4.41s-6.84.57-8.23,1.56-2.38-1-3.88.52-.55,3.93-1.42,4.78l-.12.1a4.37,4.37,0,0,0-.13,4.24,13.26,13.26,0,0,0,2.42,2.46l14.08,7.34c1.7-1.2,5-12.51,4.78-13.92A3,3,0,0,0,397.36,167.63Z"></path><path class="cls-11" d="M381.9,171.94c-.64.69,1.47,14.27,5.6,14.76s9-5,9.44-6.61.18-10.33-1.5-11.14S385.77,167.77,381.9,171.94Z"></path><path class="cls-9" d="M383.83,168s-.82,3.16,4.13,3.75,5.27,1.7,5.86,3.43c1.1,3.25,4.57,7,5.75-2.73.06-.47-3.49-7.17-7.33-7.69S383.83,168,383.83,168Z"></path><path class="cls-11" d="M394.25,176.93s1.55-2.67,2.76-1.4.33,4.25-1.3,5.19"></path><path class="cls-6" d="M378,189.81s-5.54.89-12.9,13.91c0,0-16.78-9.19-18-9s-6.07,3.54-6.43,5.33,15.6,15.18,23.89,17.33,14.57-12.72,14.57-12.72"></path><path class="cls-11" d="M399.32,228.29,395,229.8s-3.77,1.17-4,2.23,4.24.1,5.18,0-4.16,4.83-4.14,5.65.85.95,1.44.71-.83,1.41.35,1.77a2,2,0,0,0,2-.83s.12,1.65,1.3,1.41,6.47-6.24,6.94-8.35S401.54,227.52,399.32,228.29Z"></path><path class="cls-11" d="M404.12,232.92s-2,6.39-3.2,6.3-1.5-2.79-1.5-2.79,3.25-4.82,4.07-5.2S404.12,232.92,404.12,232.92Z"></path><path class="cls-6" d="M407.67,194.8s13,15.71,14.4,21.3-16.52,19.09-16.52,19.09L399,228.27s11.6-11,9.94-12.65-10.56-10-10.56-10"></path></g><g id="book"><path class="cls-5" d="M217.87,313.86l-1.46-1.1,1.29-17.28,7.6.28s-.39,7.39,1.25,9.19,6.19.93,6.62,1.11,3.47-.47,4.71,1-4.94,5-8.12,5.53a20.18,20.18,0,0,1-6.53-.22s-.36-4.47-1.47-4.11-1.54,5-1.54,5Z"></path><path class="cls-9" d="M200.46,265.89c-.63,18.08,13,35.2,13,35.2s4.12,5.61,15.33,3.22c1.2-.26,3.87-29.08,5.18-44.06C227.7,258.57,204.64,256.87,200.46,265.89Z"></path><path class="cls-12" d="M238.18,334.68c.35,0,3.53-1.27.85-3.31a56.07,56.07,0,0,0-5.54-3.79"></path><path class="cls-7" d="M238.18,317.87s-2.66,9.88,0,15.14l-36.27,21.32L166,375.09V359.76"></path><path class="cls-12" d="M239.38,316.34c-.08.68-.17,1.37-.26,2.05L166,359.76v15.33l73-42.59c0,.6,0,1.21,0,1.82l-75.88,43.9V357.31Z"></path><path class="cls-12" d="M239,316.61,163.6,359.76,57.83,297.66l73.76-42.3a7.28,7.28,0,0,1,7.33.06L239,314.72A1.1,1.1,0,0,1,239,316.61Z"></path><path class="cls-12" d="M163.21,378.22S57.51,316,57.83,315.68s0-18,0-18l105.77,62.1Z"></path><path class="cls-13" d="M163.21,378.22S57.51,316,57.83,315.68s0-18,0-18l105.77,62.1Z"></path><path class="cls-12" d="M239,314.72a2.72,2.72,0,0,1,1.11,1.91c.12,1.29-1.25,1.91-1.73,2.18"></path><path class="cls-10" d="M238.18,313.78c.35,0,3.53-1.27.85-3.31a53.92,53.92,0,0,0-5.54-3.79"></path><path class="cls-7" d="M238.18,297s-2.66,9.88,0,15.14l-36.27,21.32L166,354.19V338.85"></path><path class="cls-10" d="M239.38,295.43c-.08.69-.17,1.37-.26,2.06L166,338.85v15.34l73-42.6c0,.61,0,1.22,0,1.82l-75.88,43.91V336.41Z"></path><path class="cls-10" d="M239,295.71,163.6,338.85,57.83,276.76l73.76-42.3a7.3,7.3,0,0,1,7.33,0L239,293.82A1.1,1.1,0,0,1,239,295.71Z"></path><path class="cls-10" d="M163.21,357.32S57.51,295.07,57.83,294.77s0-18,0-18L163.6,338.85Z"></path><path class="cls-14" d="M163.21,357.32S57.51,295.07,57.83,294.77s0-18,0-18L163.6,338.85Z"></path><path class="cls-10" d="M239,293.82a2.72,2.72,0,0,1,1.11,1.91c.12,1.28-1.25,1.91-1.73,2.18"></path><g id="character_2" data-name="character 2"><path class="cls-5" d="M237.69,328.7l-1.46-1.1,1.29-17.28,7.6.28s-.38,7.39,1.25,9.19,6.19.93,6.62,1.11,3.47-.47,4.71,1-4.94,5-8.12,5.53a20.11,20.11,0,0,1-6.52-.22s-.36-4.48-1.48-4.12-1.54,5-1.54,5Z"></path><path class="cls-9" d="M241,262.73a45.24,45.24,0,0,0-15.83-3.94c.93,6.76,1.79,11.46,1.93,11.8.37.85,7.33,43.81,7.33,43.81,8.22,3.31,17.93.54,17.93.54s-3.35-33.51-3.63-39.1c0-.6-.06-1.21-.1-1.81A13.19,13.19,0,0,0,241,262.73Z"></path><path class="cls-5" d="M218.91,250.23l-11.09-7.84a2.34,2.34,0,0,1-.78-2.89L214.89,222a2.37,2.37,0,0,1,3.4-1l12.39,7.72a2.36,2.36,0,0,1,.84,3.09l-9.16,17.59A2.36,2.36,0,0,1,218.91,250.23Z"></path><path class="cls-5" d="M217.92,249.62l-11.09-7.84a2.36,2.36,0,0,1-.79-2.89l7.86-17.47a2.37,2.37,0,0,1,3.4-1l12.39,7.72a2.36,2.36,0,0,1,.84,3.09l-9.16,17.59A2.36,2.36,0,0,1,217.92,249.62Z"></path><polygon class="cls-7" points="219.77 248.55 207.29 239.73 215.48 221.53 229.34 230.16 219.77 248.55"></polygon><path class="cls-11" d="M214,229.25c-4.12,2.26-10.58,4.84-14.92,7.83-.7.48-1.74,2.13-1,1.9-.29.33,2.55,1.45,2.28,1.82-.09.12,1.84-.94,1.94-.89s0,0,0,0a7.46,7.46,0,0,0,5.32.64l.72-.53,0,0,.18-.1a.33.33,0,0,1,.13-.13l.11-.08a.46.46,0,0,1,.16-.26c1-.76,3.05-1.15,3.27-2.41a2.44,2.44,0,0,0-.3-1,.37.37,0,0,1,.08-.49,2.87,2.87,0,0,0-.43-2.2s0,0,0-.07l.24-.28a27.32,27.32,0,0,0,3.19-2.61.64.64,0,0,0,.2-.39.2.2,0,0,0,0-.07.24.24,0,0,0,0-.12A.78.78,0,0,0,214,229.25Z"></path><path class="cls-6" d="M211.89,233.72c-.31-.8-.76-.83-1.48-.52a24.29,24.29,0,0,0-4.12,2.34c-.21.15,0,.5.22.35.81-.56,4.29-3.12,5-2s-1.64,1.91-2.29,2.26l-2.51,1.33c-.24.12,0,.47.21.35.53-.28,1.07-.56,1.62-.83a.19.19,0,0,0,0,.12,3.06,3.06,0,0,0,.47.48,1.54,1.54,0,0,0-.17,1.43l.07.09c-1,1.5-4.11,1.82-5.49.79-.2-.16-.49.14-.28.3,1.63,1.22,5,.87,6.16-.94a2.14,2.14,0,0,0,.74-.24,4.79,4.79,0,0,0,1.94-1.27,1.6,1.6,0,0,0,0-1.65.18.18,0,0,0-.05-.07,1,1,0,0,0,.06-1.46A1.49,1.49,0,0,0,211.89,233.72Zm-.17,3.71a2.71,2.71,0,0,1-1.06.86c-.27.15-.91.61-1.18.54-.53-.13-.21-.82,0-1.13h0a2.93,2.93,0,0,0,.81-.48c.33-.21.67-.41,1-.63a3.59,3.59,0,0,0,.33-.25A1.3,1.3,0,0,1,211.72,237.43Zm-1.28-.77c-.57.36-1,.8-1.57.17.8-.41,1.6-.82,2.36-1.29a1.81,1.81,0,0,0,.59-.53C212.24,235.72,210.86,236.4,210.44,236.66Z"></path><path class="cls-5" d="M201.65,234s2.78.62,3,6.47l-2.08,5.19-11.35-5.88S193.92,236.34,201.65,234Z"></path><path class="cls-11" d="M228.53,236.7c-.84,1.87-1.68,3.56-2.39,5.47-.52-1.26-1-2.3-1.63-3.51a1.27,1.27,0,0,0-.1-.12,1,1,0,0,0-1.8.6,7.82,7.82,0,0,0,1.32,3.21,1.56,1.56,0,0,0-.27.2c-1.63,1.82-1.24,4.59-1,6.83a.86.86,0,0,0,1.29.69.82.82,0,0,0,.44-.11c1.58-.87,2.39-2.63,3-4.25C228.3,242.85,229.49,239.72,228.53,236.7Z"></path><path class="cls-5" d="M186.19,236.56l4.1-1.22c1,.15,9.89,3.77,13.58,10.09a39.66,39.66,0,0,1,.9,5.86c.34,2.63.61,5.27.74,7.91a58.06,58.06,0,0,1-.14,8.65c-.12,1.23-.2,1.85-.42,3.07a5.62,5.62,0,0,1-1.61,1c-12.3,4.27-21.33-2.65-21.7-3.64s-1-15.18-1.25-23.62A8.12,8.12,0,0,1,186.19,236.56Z"></path><path class="cls-11" d="M197.05,221.94s2.76,13.9-2.36,15.4-11.14-4.3-11.58-7.15S189.86,217.31,197.05,221.94Z"></path><path class="cls-6" d="M195.06,227.5c.16-.23,3.1-1,3.72-3.49s-1.62-5.73-6.74-6.19-13.72,2.32-12.4,15.8,14.9,7.69,15.78,3.38A25.86,25.86,0,0,0,195.06,227.5Z"></path><path class="cls-6" d="M195.06,227.5s.86,4.61,2.73,6.59,3.38,5.59,1.09,8.33,0,4.24,3.23,6.87,1.25,13.33-10.43,10.7-17.18-9.67-17.18-9.67,3-21,6.18-25.92"></path><path class="cls-5" d="M203.89,245.63s2.65,8.86,5.29,9.13,6.64-3.64,9.46-8.74c0,0,7.35-.7,8.12,7.11,0,0-9.31,18.85-22.87,14.25"></path><path class="cls-9" d="M181.64,268.25s-2.18,14.16,7.56,20,24.89-.24,33.23-6.48S205,270.92,205,270.92,192.11,274.17,181.64,268.25Z"></path></g></g></svg>