<svg transform="scale(1)" version="1.1" id="Layer_1" xmlns="http://www.w3.org/2000/svg" xmlns:xlink="http://www.w3.org/1999/xlink" x="0px" y="0px" viewBox="0 0 500 500" xml:space="preserve" class="show_show__wrapper__graphic__5Waiy "><title>React</title><style type="text/css">
	.st0{fill:#8787f1;}
	.st1{opacity:0.32;fill:url(#SVGID_1_);enable-background:new    ;}
	.st2{fill:#000000;}
	.st3{fill:#FFBEB3;}
	.st4{fill:#a8a8a8;}
	.st5{opacity:0.45;fill:#000000;enable-background:new    ;}
	.st6{fill:#d90202;}
	.st7{opacity:0.2;fill:#524235;enable-background:new    ;}
	.st8{fill:#524235;}
	.st9{fill:#2f2e2e;}
	.st10{opacity:0.3;fill:#373638;enable-background:new    ;}
	.st11{opacity:0.5;fill:#373638;enable-background:new    ;}
	.st12{opacity:0.32;fill:url(#SVGID_00000084506128700033969400000007604027300263623064_);enable-background:new    ;}
	.st13{opacity:0.32;fill:url(#SVGID_00000028325459525712349170000014436177439878777496_);enable-background:new    ;}
	.st14{opacity:0.59;fill:#dccbcb;enable-background:new    ;}
	.st15{fill:#92b362;}
</style><path class="st0" id="field" d="M243.2,403.5L28.8,276.8c-6.8-3.8-12.7-10.1-6-14.2l215.2-124c3.2-2,8.1-3.3,11.4-1.4l225.1,130.6
	c6.8,4,8,15,1.2,19L271.5,403.3C262.7,408.4,252,408.5,243.2,403.5z"></path><g id="person"><linearGradient id="SVGID_1_" gradientUnits="userSpaceOnUse" x1="304.4779" y1="113.5805" x2="271.1379" y2="156.1505" gradientTransform="matrix(1 0 0 -1 0 502)"><stop offset="0" style="stop-color: rgb(203, 155, 234); stop-opacity: 0.03;"></stop><stop offset="0.99" style="stop-color: rgb(170, 45, 212);"></stop></linearGradient><path class="st1" d="M332,363l-43.6-25.6c-1.3,0-25.8-7.6-26.9-8c-7.6,4.2-22.8,11.9-31.2,16.9c-0.1,1.4,6.7,15.2,6.7,16.6
		l45.3,28.1C299.1,380.9,314.6,372.3,332,363z"></path><path class="st2" d="M253.2,332.2c0,0-1,3.1,0.7,4.9s20.1,11.8,28.7,9.4s7.7-5.2,7.6-6.7"></path><path class="st2" d="M227.4,342.4c-0.7,1.9-0.7,4-0.2,5.9c0.8,3.1,8.6,16.1,15.4,17.2s13.2-0.7,12.8-6.2"></path><path class="st3" d="M247.3,265.1c0,0-3.2,17-3.9,22.7s-3.5,50.9-3.5,50.9s-6,8.3-8.8,6.3s-5.1-38.5-3.7-53s4-35.3,4-35.3"></path><path class="st3" d="M270.1,248.6c0.4,0.8-5.3,78.9-5.3,78.9s-4.4,4.9-9.5,2.1c0,0-6.6-52.8,0.2-74.1"></path><path class="st4" d="M232,202.6c0,0-5.6,10.6-6.6,20.7s0.4,46.1,0.4,46.1s20.2,10.6,27.4-5.9c0,0,4,4.6,20.9-5.2
		c0,0,2.7-42.6-3.1-54.7S233.7,198.1,232,202.6z"></path><path class="st3" d="M259.4,128.8c0,0,11.5,1.6,14.8,17.1l5.1,16.9l24.4-5.2l6,6.3c0,0-23,13.7-32.3,14.1s-14.8-9.8-17.2-16.3
		S259.4,128.8,259.4,128.8z"></path><path class="st3" d="M225.4,134.8c-5.8,3.4-9.9,8.9-11.7,15.4c-2.9,10.9-8.9,32.2-9.7,35.5s-3.1,31-3.1,31s-3,8.7-3,11.1
		c0.1,2,0.4,4,0.9,5.9c0,0,3.5,3.1,5.2,3.1s6.6-0.7,6.8-1.9s-3.7-2.6-3.1-5.5s2.7-2.9,3.9-1.7s2.7-1.5,2.7-1.5s-4.4-5.4-6.6-7.6
		c0,0,8.1-28.7,9.6-32.9s7.2-17.4,8.9-18.5s8,1.1,12.6-12.6S225.4,134.8,225.4,134.8z"></path><path class="st4" d="M269.4,144.3c-0.5-6.1-2.8-13.5-9.5-15.4c-2-0.5-4.1-0.6-6.2-0.3l-8,1.2l-10.4,1.6c0,0-8.1,1.2-9.9,3.5
		c0,0,9.9,4.9,9.5,15.5c-0.3,7.4-3.4,17.5-8.6,16.9c0,0,3.6,30.5,5.7,35.4c0,0,20.4,9.3,36.8-1.9
		C268.8,200.7,270.4,156.4,269.4,144.3z"></path><path class="st5" d="M269.4,144.3c-0.5-6.1-2.8-13.5-9.5-15.4c-2-0.5-4.1-0.6-6.2-0.3l-8,1.2l-10.4,1.6c0,0-8.1,1.2-9.9,3.5
		c0,0,9.9,4.9,9.5,15.5c-0.3,7.4-3.4,17.5-8.6,16.9c0,0,3.6,30.5,5.7,35.4c0,0,20.4,9.3,36.8-1.9
		C268.8,200.7,270.4,156.4,269.4,144.3z"></path><path class="st3" d="M238.4,118.9c0.3,2.4,0.3,4.9,0,7.3c-0.5,2-1.6,3.8-3.1,5.2c0,0,10.9,13.7,19.5,12.2
		c8.6-1.5-3.5-14.1-3.5-14.1s1,0.3,0.8-3.7"></path><path class="st6" d="M230.1,333.2c0,0,1,9.8,2.7,7.9s-0.6-7.8,2.5-7.7s5-0.6,5.4,0.9s3.9,12.3,9.3,16.7s7.6,9.2,2.2,9.6
		c-1.4,0.2-2.7,0.8-3.7,1.7c-1.5,1.5-7.9,0.6-10.6-2.2s-10.5-15.2-10.6-17.7S227.7,333.8,230.1,333.2z"></path><path class="st6" d="M263.2,328.5c0,0-1.6-4,0.2-4.8s3.6-1.7,4.5-0.7s1.4,3.3,2.1,3.9s16.1,8.3,18.4,10.5s1.8,3.6,1.1,3.2
		s-1.6-1.1-2.1,0s-0.4,4.8-3.3,4.6s-8.5,0.3-11.6-2.3s-11-4.6-13.9-6s-5.4-2.6-5.4-4.6s0.2-8.4,1.5-8.6s0.9,3.6,2.9,4.6
		C259.7,329.3,263.2,328.5,263.2,328.5z"></path><path class="st7" d="M251.4,129.5l-0.1-0.1l-8.7-7.8l-3.4,2.7c0.8,1.1,1.7,2.2,2.7,3.2C244.8,130,248.8,132.1,251.4,129.5z"></path><path class="st8" d="M259.3,98.3c-0.7-0.8-1.6-1.3-2.7-1.5c-0.2-0.4-0.5-0.7-0.8-1c-1.2-1.3-2.8-2.1-4.6-2.2
		c-0.7,0-1.3,0.1-1.9,0.3c-1-0.6-2.1-1-3.3-1.1c-1.2-0.1-2.4,0.2-3.4,0.8c-1.6-0.6-3.5-0.6-5.1,0.2c-1.1,0.5-2,1.4-2.6,2.4
		c-1.9,0.3-3.6,1.5-4.5,3.2c-0.7,1.2-0.9,2.7-0.5,4.1c-1.1,1.5-1.3,3.5-0.5,5.1c0.3,0.7,0.8,1.4,1.5,1.9c0,0.2,0,0.3,0,0.5
		c0.4,2.4,1.3,4.6,2.6,6.7c0.6,0.8,1.2,1.6,1.9,2.3c0.5,0.5,1,0.9,1.5,1.3c0.4,0.3,0.4,0.7,0.3,0.3c0.1,1.2,0.9,2.1,2,2.5
		c2.5-1.4,4-3.8,5.2-6.3c0.2-0.3,0.6-0.5,1-0.3c0.1,0.1,0.2,0.2,0.3,0.3l9.5-10.2c2.3-0.5,4.2-2.2,5-4.4
		C260.8,101.7,260.4,99.7,259.3,98.3z"></path><path class="st3" d="M257.8,104.9c0.5-1,3.8,22.6-3.9,24.3c-7.6,1.7-11.9-7.4-11.9-7.4s-7.2-4.1-3.5-6.7s5.4,1,5.4,1
		s-1.8-10.2,3-9.3S255.8,108.8,257.8,104.9z"></path><g id="dumbell"><path class="st9" d="M317,137.3l3.5-2c3-1.7,7.8,1.2,10.9,6.5s3.1,11,0.2,12.7l-3.5,2l-1.4-2.4c-5-3.1-8.2-8.5-8.3-14.4L317,137.3
			z"></path><path class="st10" d="M317,137.3l3.5-2c3-1.7,7.8,1.2,10.9,6.5s3.1,11,0.2,12.7l-3.5,2l-1.4-2.4c-5-3.1-8.2-8.5-8.3-14.4
			L317,137.3z"></path><ellipse class="st9" transform="matrix(0.866 -0.5 0.5 0.866 -30.245 180.9397)" cx="322.5" cy="146.9" rx="6.2" ry="11.1"></ellipse><ellipse class="st11" transform="matrix(0.866 -0.5 0.5 0.866 -30.245 180.9397)" cx="322.5" cy="146.9" rx="6.2" ry="11.1"></ellipse><path class="st4" d="M300.2,155.7l20-10.6c0.3-0.1,0.6-0.2,0.9-0.2c1.8,0,3.3,1.5,3.3,3.3c0,0,0,0.1,0,0.1c0,0.6-0.3,1.2-0.9,1.5
			l-20.5,11c-0.8,0.4-1.7,0.2-2.1-0.6l-1.3-2.2C299.1,157.2,299.3,156.2,300.2,155.7C300.1,155.7,300.1,155.7,300.2,155.7z"></path><path class="st9" d="M287.7,152.9l3.5-2c3-1.7,7.8,1.2,10.9,6.5s3.1,11,0.2,12.7l-3.5,2l-1.4-2.4c-5-3.1-8.2-8.5-8.3-14.4
			L287.7,152.9z"></path><path class="st11" d="M287.7,152.9l3.5-2c3-1.7,7.8,1.2,10.9,6.5s3.1,11,0.2,12.7l-3.5,2l-1.4-2.4c-5-3.1-8.2-8.5-8.3-14.4
			L287.7,152.9z"></path><ellipse class="st9" transform="matrix(0.866 -0.5 0.5 0.866 -41.9588 168.3887)" cx="293.2" cy="162.5" rx="6.2" ry="11.1"></ellipse><ellipse class="st10" transform="matrix(0.866 -0.5 0.5 0.866 -41.9588 168.3887)" cx="293.2" cy="162.5" rx="6.2" ry="11.1"></ellipse><path class="st9" d="M288.5,159.1l1.7-1c1.4-0.8,3.7,0.6,5.2,3.1s1.5,5.2,0.1,6.1l-1.7,1l-0.7-1.1c-2.4-1.5-3.9-4-4-6.9
			L288.5,159.1z"></path><path class="st11" d="M288.5,159.1l1.7-1c1.4-0.8,3.7,0.6,5.2,3.1s1.5,5.2,0.1,6.1l-1.7,1l-0.7-1.1c-2.4-1.5-3.9-4-4-6.9
			L288.5,159.1z"></path><ellipse class="st9" transform="matrix(0.866 -0.5 0.5 0.866 -42.8226 167.5187)" cx="291.2" cy="163.7" rx="3" ry="5.3"></ellipse></g><path class="st3" d="M318.2,150.9c-1.5-0.9-1.7,2.1-1.7,2.1c-0.3-0.7-0.9-1.2-1.6-1.4c-1.3-0.4-1.4,2.1-1.4,2.1s-0.6-1.7-1.7-1.6
		s-1.1,2.4-1.1,2.4c0-0.2-0.3-0.6-0.5-0.7c-0.5-0.3-1.2-0.2-1.5,0.3c-0.4,0.5-0.2,1.2-0.4,1.9c-0.1,0.7-0.4,1.4-0.8,1.9
		c-0.8,0.7-1.7,1.4-2.6,2l4.3,4.4c0,0,2.8-0.3,4.6-0.6s5.7-3,6.3-5.1S319.7,151.8,318.2,150.9z"></path><path class="st3" d="M305.9,149.6c-1.6,0.2-1.9,2.8-2,4.4c1.2-0.6,2.5-1.2,3.8-1.6l0.2-0.1c0.3-0.5,4.3-0.6,4.8-2
		S307.9,149.4,305.9,149.6z"></path></g><g id="dumbells"><linearGradient id="SVGID_00000106132888646409633610000007216058910396297628_" gradientUnits="userSpaceOnUse" x1="146.3978" y1="183.5889" x2="112.0978" y2="247.9089" gradientTransform="matrix(1 0 0 -1 0 502)"><stop offset="0" style="stop-color: rgb(203, 155, 234); stop-opacity: 0.03;"></stop><stop offset="0.99" style="stop-color: rgb(170, 45, 212);"></stop></linearGradient><path d="
		M193.1,290.3l-54.9-41.7c-1.3,0-13.4-22.5-14.5-22.8c-7.6,4.2-58.6,31.4-66.9,36.4c-0.1,1.4,6.7,15.2,6.7,16.6l73.4,46.9
		C153.8,315.6,175.8,299.6,193.1,290.3z" style="opacity: 0.32; fill: url(&quot;#SVGID_00000106132888646409633610000007216058910396297628_&quot;);"></path><g id="dumbell-2"><path class="st9" d="M149.8,248.5l6.3-3.6c5.2-3,13.9,2.1,19.3,11.5c5.4,9.4,5.6,19.4,0.3,22.5l-6.3,3.6l-2.4-4.2
			c-3.8-2-7.7-5.8-10.6-10.9s-4.4-10.3-4.2-14.6L149.8,248.5z"></path><path class="st10" d="M149.8,248.5l6.3-3.6c5.2-3,13.9,2.1,19.3,11.5c5.4,9.4,5.6,19.4,0.3,22.5l-6.3,3.6l-2.4-4.2
			c-3.8-2-7.7-5.8-10.6-10.9s-4.4-10.3-4.2-14.6L149.8,248.5z"></path><ellipse class="st9" transform="matrix(0.866 -0.5 0.5 0.866 -111.3478 115.3571)" cx="159.6" cy="265.5" rx="11" ry="19.6"></ellipse><ellipse class="st11" transform="matrix(0.866 -0.5 0.5 0.866 -111.3478 115.3571)" cx="159.6" cy="265.5" rx="11" ry="19.6"></ellipse><path class="st4" d="M119.9,281l35.5-18.9c0.5-0.2,1-0.4,1.5-0.3c1.8,0.1,5.5,0.9,5.8,6c0.1,1.1-0.5,2.1-1.5,2.7L124.9,290
			c-1.3,0.7-3,0.3-3.8-1.1l-2.3-3.9c-0.8-1.3-0.4-3.1,1-3.9C119.8,281.1,119.9,281,119.9,281z"></path><path class="st9" d="M97.8,276.1l6.3-3.6c5.2-3,13.9,2.1,19.3,11.5s5.6,19.5,0.3,22.5l-6.3,3.6l-2.5-4.2c-3.8-2-7.7-5.8-10.6-10.9
			s-4.3-10.4-4.1-14.6L97.8,276.1z"></path><path class="st11" d="M97.8,276.1l6.3-3.6c5.2-3,13.9,2.1,19.3,11.5s5.6,19.5,0.3,22.5l-6.3,3.6l-2.5-4.2
			c-3.8-2-7.7-5.8-10.6-10.9s-4.3-10.4-4.1-14.6L97.8,276.1z"></path><ellipse class="st9" transform="matrix(0.866 -0.5 0.5 0.866 -132.1105 93.0917)" cx="107.7" cy="293.1" rx="11" ry="19.6"></ellipse><ellipse class="st10" transform="matrix(0.866 -0.5 0.5 0.866 -132.1105 93.0917)" cx="107.7" cy="293.1" rx="11" ry="19.6"></ellipse><path class="st9" d="M99.3,287l3-1.7c2.5-1.5,6.6,1,9.2,5.5s2.7,9.3,0.2,10.7l-3,1.7l-1.2-2c-4.2-2.6-6.9-7.2-7-12.2L99.3,287z"></path><path class="st11" d="M99.3,287l3-1.7c2.5-1.5,6.6,1,9.2,5.5s2.7,9.3,0.2,10.7l-3,1.7l-1.2-2c-4.2-2.6-6.9-7.2-7-12.2L99.3,287z"></path><ellipse class="st9" transform="matrix(0.866 -0.5 0.5 0.866 -133.6515 91.5554)" cx="104" cy="295.2" rx="5.2" ry="9.4"></ellipse></g><g id="dumbell-3"><path class="st9" d="M110.3,207.1l7.7-4.4c6.4-3.7,17.1,2.6,23.7,14.1s6.8,23.9,0.4,27.6l-7.7,4.4l-3-5.2
			c-4.7-2.4-9.4-7.1-13-13.4s-5.3-12.7-5.1-18L110.3,207.1z"></path><path class="st10" d="M110.3,207.1l7.7-4.4c6.4-3.7,17.1,2.6,23.7,14.1s6.8,23.9,0.4,27.6l-7.7,4.4l-3-5.2
			c-4.7-2.4-9.4-7.1-13-13.4s-5.3-12.7-5.1-18L110.3,207.1z"></path><ellipse class="st9" transform="matrix(0.866 -0.5 0.5 0.866 -97.5969 91.7265)" cx="122.4" cy="228" rx="13.5" ry="24.1"></ellipse><ellipse class="st11" transform="matrix(0.866 -0.5 0.5 0.866 -97.5969 91.7265)" cx="122.4" cy="228" rx="13.5" ry="24.1"></ellipse><path class="st4" d="M73.7,247.1l43.6-23.2c0.6-0.3,1.2-0.4,1.9-0.4c2.2,0.1,6.8,1.1,7.1,7.3c0.1,1.4-0.7,2.6-1.8,3.3l-44.6,24
			c-1.7,0.9-3.7,0.3-4.7-1.3l-2.9-4.8c-1-1.7-0.4-3.8,1.2-4.8C73.6,247.2,73.6,247.2,73.7,247.1z"></path><path class="st9" d="M46.5,241l7.7-4.4c6.5-3.7,17.1,2.6,23.7,14.1s6.8,23.9,0.4,27.6l-7.7,4.5l-3-5.2c-4.7-2.4-9.4-7.1-13-13.4
			s-5.3-12.7-5.1-18L46.5,241z"></path><path class="st11" d="M46.5,241l7.7-4.4c6.5-3.7,17.1,2.6,23.7,14.1s6.8,23.9,0.4,27.6l-7.7,4.5l-3-5.2c-4.7-2.4-9.4-7.1-13-13.4
			s-5.3-12.7-5.1-18L46.5,241z"></path><ellipse class="st9" transform="matrix(0.866 -0.5 0.5 0.866 -123.0989 64.3828)" cx="58.6" cy="261.9" rx="13.5" ry="24.1"></ellipse><ellipse class="st10" transform="matrix(0.866 -0.5 0.5 0.866 -123.0989 64.3828)" cx="58.6" cy="261.9" rx="13.5" ry="24.1"></ellipse><path class="st9" d="M48.4,254.5l3.6-2.1c3.1-1.8,8.2,1.2,11.3,6.8c3.2,5.5,3.2,11.4,0.2,13.2l-3.7,2.1l-1.4-2.4
			c-5.2-3.2-8.5-8.9-8.6-15L48.4,254.5z"></path><path class="st11" d="M48.4,254.5l3.6-2.1c3.1-1.8,8.2,1.2,11.3,6.8c3.2,5.5,3.2,11.4,0.2,13.2l-3.7,2.1l-1.4-2.4
			c-5.2-3.2-8.5-8.9-8.6-15L48.4,254.5z"></path><ellipse class="st9" transform="matrix(0.866 -0.5 0.5 0.866 -124.9912 62.4964)" cx="54.1" cy="264.5" rx="6.4" ry="11.5"></ellipse></g></g><g id="plant"><linearGradient id="SVGID_00000085971996338153286130000012575935342230340536_" gradientUnits="userSpaceOnUse" x1="451.8694" y1="193.0795" x2="428.5594" y2="222.8395" gradientTransform="matrix(1 0 0 -1 0 502)"><stop offset="0" style="stop-color: rgb(203, 155, 234); stop-opacity: 0.03;"></stop><stop offset="0.99" style="stop-color: rgb(170, 45, 212);"></stop></linearGradient><path d="
		M449.1,286.3c-10.3-5.7-21.3-11-30.4-18.7c-4.3,2.3-8.8,4.7-11.9,6.5c-0.1,1,4.7,10.6,4.7,11.6l31.6,19.6c6.6-4,12.9-7.6,19.3-11.1
		C458.1,291.5,453.7,288.8,449.1,286.3z" style="opacity: 0.32; fill: url(&quot;#SVGID_00000085971996338153286130000012575935342230340536_&quot;);"></path><path class="st4" d="M399.5,199.5l6.2,83.3c0,0,10.6,7.5,21.2,0l4.6-83.3L399.5,199.5z"></path><path class="st14" d="M418.5,258.2c-3.4,8.4-7.7,16.5-12.9,23.9v0.6c0,0,10.6,7.5,21.2,0l3.8-67.8
		C428.3,229.8,424.2,244.4,418.5,258.2z"></path><ellipse class="st8" cx="415.4" cy="198.3" rx="16" ry="9.8"></ellipse><path class="st15" d="M415.4,198.3c2.3,3.4-8.4-58-16-65.8C399.5,132.5,390.8,162.1,415.4,198.3z"></path><path class="st15" d="M415.4,198.3c0,0-7-65.4,16-86.2C431.4,112.1,436,163.8,415.4,198.3z"></path></g></svg>