<svg transform="scale(1)" version="1.1" id="Layer_1" xmlns="http://www.w3.org/2000/svg" xmlns:xlink="http://www.w3.org/1999/xlink" x="0px" y="0px" viewBox="0 0 500 500" xml:space="preserve" class="show_show__wrapper__graphic__5Waiy "><title>React</title><style type="text/css">
	.st0{fill:#7b9bf6;}
	.st1{opacity:0.32;fill:url(#SVGID_1_);enable-background:new    ;}
	.st2{opacity:0.32;fill:url(#SVGID_00000122711207167788151150000005131719108988527248_);enable-background:new    ;}
	.st3{opacity:0.32;fill:url(#SVGID_00000125598486496862501470000010695187695806860709_);enable-background:new    ;}
	.st4{opacity:0.32;fill:url(#SVGID_00000119810063689410348110000008426493698511756209_);enable-background:new    ;}
	.st5{fill:#CCCCCC;}
	.st6{fill:#0071BC;}
	.st7{opacity:0.5;fill:#1A1A1A;enable-background:new    ;}
	.st8{fill:#FFFFFF;}
	.st9{opacity:0.8;fill:#FFFFFF;enable-background:new    ;}
	.st10{opacity:0.58;}
	.st11{fill:none;}
	.st12{fill:#FFBC5A;}
	.st13{fill:#FFE9CA;}
	.st14{fill:#68E1FD;}
	.st15{opacity:0.22;fill:#1A1A1A;enable-background:new    ;}
	.st16{opacity:0.37;fill:#FFFFFF;enable-background:new    ;}
	.st17{fill:#1A1A1A;}
	.st18{fill:#F15A24;}
</style><path class="st0" id="Base" d="M252.5,410l208.4-117c4.8-2.7,6.5-8.8,3.7-13.6c-0.8-1.4-2-2.6-3.4-3.5l-202-125.2
	c-3.1-2-7.1-2-10.3-0.2l-220.5,128c-4.8,2.8-6.3,8.9-3.5,13.7c0.9,1.5,2.1,2.7,3.5,3.5l196.6,114C233.6,414.7,244,414.8,252.5,410z"></path><g id="Shadow"><linearGradient id="SVGID_1_" gradientUnits="userSpaceOnUse" x1="163.7216" y1="152.219" x2="177.6616" y2="175.449" gradientTransform="matrix(1 0 0 -1 0 502)"><stop offset="0" style="stop-color: rgb(0, 0, 0); stop-opacity: 0;"></stop><stop offset="0.99" style="stop-color: rgb(26, 26, 26);"></stop></linearGradient><polyline class="st1" points="243.3,336.1 188,366.6 109.3,321.5 160.7,289.5 	"></polyline><linearGradient id="SVGID_00000037683856683254753060000003538199078703220885_" gradientUnits="userSpaceOnUse" x1="230.7042" y1="112.7451" x2="300.4342" y2="173.1751" gradientTransform="matrix(1 0 0 -1 0 502)"><stop offset="0" style="stop-color: rgb(0, 0, 0); stop-opacity: 0;"></stop><stop offset="0.99" style="stop-color: rgb(26, 26, 26);"></stop></linearGradient><polyline points="
		316.4,343.2 226.4,397.2 204.1,384 287.3,330.9 	" style="opacity: 0.32; fill: url(&quot;#SVGID_00000037683856683254753060000003538199078703220885_&quot;);"></polyline><linearGradient id="SVGID_00000084502909153758254060000012086833163419126418_" gradientUnits="userSpaceOnUse" x1="272.6478" y1="213.9726" x2="318.1978" y2="253.4426" gradientTransform="matrix(1 0 0 -1 0 502)"><stop offset="0" style="stop-color: rgb(0, 0, 0); stop-opacity: 0;"></stop><stop offset="0.99" style="stop-color: rgb(26, 26, 26);"></stop></linearGradient><polyline points="
		334.2,264.3 280.4,296.4 249.8,278.2 297.9,248.4 	" style="opacity: 0.32; fill: url(&quot;#SVGID_00000084502909153758254060000012086833163419126418_&quot;);"></polyline><linearGradient id="SVGID_00000039828981407950251600000003843127103692587950_" gradientUnits="userSpaceOnUse" x1="86.9678" y1="201.6726" x2="132.5078" y2="241.1426" gradientTransform="matrix(1 0 0 -1 0 502)"><stop offset="0" style="stop-color: rgb(0, 0, 0); stop-opacity: 0;"></stop><stop offset="0.99" style="stop-color: rgb(26, 26, 26);"></stop></linearGradient><polyline points="
		148.5,276.6 94.7,308.7 64.1,290.5 112.2,260.6 	" style="opacity: 0.32; fill: url(&quot;#SVGID_00000039828981407950251600000003843127103692587950_&quot;);"></polyline></g><g id="Thermometer"><path class="st5" d="M408.5,275.6l-2.4,5.3c-0.2-0.2-0.4-0.4-0.6-0.6c-11.6-9.5-26.2-0.6-34,4.3c0,0-49.7,27.8-55.9,32.7
		c-4.8,3.8-34.9,27.8-48.5,38.6l-0.5-2.2l-20.1,10.2c0,0,0.2,7.5,0,8.1h0.1c-0.3,1,0,2.1,0.7,2.8c1,1,2.5,1.1,3.7,0.4l14.4-9.4
		c0.1-0.1,0.3-0.1,0.4-0.2l57-25.2c17.8-7.9,72.7-40.4,73.7-41.2c2.2-1.8,11.7-7.1,12.3-13l0,0L408.5,275.6z"></path><path class="st6" d="M406.1,280.9c-0.2-0.2-0.4-0.4-0.6-0.6c-7.5-6.1-16.3-4.6-23.7-1.3c3.6,2.8,6.4,6.4,8.4,10.5
		c1-0.3,2.1,0.2,2.4,1.3c0.1,0.2,0.1,0.4,0.1,0.6v10.3c2.1-1.3,3.4-2.1,3.6-2.2c2.2-1.8,11.7-7.1,12.3-13l0,0l0.1-9.9L406.1,280.9z"></path><path class="st7" d="M406.1,280.9c-0.2-0.2-0.4-0.4-0.6-0.6c-7.5-6.1-16.3-4.6-23.7-1.3c3.6,2.8,6.4,6.4,8.4,10.5
		c1-0.3,2.1,0.2,2.4,1.3c0.1,0.2,0.1,0.4,0.1,0.6v10.3c2.1-1.3,3.4-2.1,3.6-2.2c2.2-1.8,11.7-7.1,12.3-13l0,0l0.1-9.9L406.1,280.9z"></path><path class="st8" d="M260.5,352.2l-12.8,9.1c-1.3,0.9-1.6,2.8-0.7,4.1c0.1,0.1,0.2,0.3,0.3,0.4l0,0c1,1,2.5,1.1,3.7,0.4l14.4-9.3
		c0.1-0.1,0.3-0.2,0.4-0.2l57-25.2c17.8-7.9,72.7-40.4,73.7-41.2c2.9-2.3,18.9-11.1,9.2-19c-11.6-9.5-26.1-0.6-34,4.3
		c0,0-49.7,27.7-55.9,32.7s-53,42.3-55,43.8L260.5,352.2z"></path><path class="st6" d="M366.8,278.2c8.4,5.1,17.2,9.6,25.8,14.3c2.2-1.3,3.5-2.1,3.7-2.3c2.9-2.3,18.9-11.1,9.2-19
		c-11.6-9.5-26.1-0.6-34,4.3L366.8,278.2L366.8,278.2z"></path><path class="st5" d="M265.4,356.8c0.3-5.2-4.7-4.7-4.7-4.7l-11.8,8.5c-1,0.7-2.3,1.4-2.4,2.7s0,2.5,0,3.7v5.9
		c1.2,4.6,4.5,2.3,4.5,2.3l14.5-9.4C265.2,362.9,265.2,359.8,265.4,356.8z"></path><path class="st7" d="M265.4,356.8c0.3-5.2-4.7-4.7-4.7-4.7l-11.8,8.5c-1,0.7-2.3,1.4-2.4,2.7s0,2.5,0,3.7v5.9
		c1.2,4.6,4.5,2.3,4.5,2.3l14.5-9.4C265.2,362.9,265.2,359.8,265.4,356.8z"></path><path class="st5" d="M265.3,358.3c0-0.5,0-1,0.1-1.5c0.3-5.2-4.7-4.7-4.7-4.7l-11.8,8.5c-1,0.7-2.3,1.4-2.4,2.7
		c-0.1,0.7-0.1,1.4,0,2.1c0.3,0.4,0.7,0.6,1.1,0.8C252.8,366.5,260.3,361.5,265.3,358.3z"></path><polygon class="st5" points="365,282.2 383.2,293.2 371.2,300.5 353.2,289.7 	"></polygon><path class="st5" d="M348.6,301l-20,12.5c-3,1.9,0.8,5.8,3.8,3.9l20-12.5C355.4,303.1,351.6,299.2,348.6,301z"></path></g><g id="Tablets"><path class="st5" d="M213.3,353.5l59.6-33.5c4.2-2.4,5.7-7.7,3.4-11.9c-0.7-1.3-1.8-2.4-3-3.2l-57.4-35.5c-5-3.1-11.3-3.2-16.4-0.2
		l-66.3,38.5c-3.3,1.9-4.4,6.1-2.5,9.3c0.6,1,1.5,1.9,2.5,2.5l58.2,33.8C198.1,357.2,206.5,357.3,213.3,353.5z"></path><path class="st9" d="M213.3,351.3l59.6-33.4c4.2-2.4,5.7-7.7,3.4-11.9c-0.7-1.3-1.8-2.4-3-3.2l-57.4-35.5c-5-3.1-11.3-3.2-16.4-0.2
		l-66.3,38.5c-3.3,1.9-4.4,6.1-2.5,9.3c0.6,1,1.5,1.9,2.5,2.5l58.2,33.8C198.1,355.1,206.5,355.1,213.3,351.3z"></path><g class="st10"><line class="st11" x1="168.3" y1="285.1" x2="248.1" y2="331.2"></line><rect class="st5" x="207.7" y="262.1" transform="matrix(0.5 -0.866 0.866 0.5 -162.8076 334.406)" width="1" height="92.2"></rect></g><ellipse class="st12" cx="168.3" cy="303.1" rx="7.7" ry="4.1"></ellipse><path class="st12" d="M176,300.5v3c0,0-4.5,2.8-7.7,2.5s-7.7-2.9-7.7-2.9v-2.6"></path><ellipse class="st13" cx="168.3" cy="300.5" rx="7.7" ry="4.1"></ellipse><path class="st12" d="M164.1,297.9l10.2,5.4"></path><path class="st12" d="M163.5,297.3l-0.4,0.2H163l11.2,5.9l0.2-0.3L163.5,297.3z"></path><ellipse class="st12" cx="184.4" cy="311.7" rx="7.7" ry="4.1"></ellipse><path class="st12" d="M192,309.1v3c0,0-4.5,2.8-7.7,2.5s-7.7-2.9-7.7-2.9v-2.6"></path><ellipse class="st13" cx="184.4" cy="309.1" rx="7.7" ry="4.1"></ellipse><path class="st12" d="M180.1,306.5l10.2,5.4"></path><path class="st12" d="M179.5,306l-0.4,0.2h-0.1l11.2,5.9l0.2-0.3L179.5,306z"></path><ellipse class="st12" cx="201.2" cy="320" rx="7.7" ry="4.1"></ellipse><path class="st12" d="M208.9,317.4v3c0,0-4.5,2.8-7.7,2.5s-7.7-2.9-7.7-2.9v-2.6"></path><ellipse class="st13" cx="201.2" cy="317.4" rx="7.7" ry="4.1"></ellipse><path class="st12" d="M197,314.8l10.2,5.4"></path><path class="st12" d="M196.4,314.2l-0.4,0.2h-0.1l11.2,5.9l0.2-0.3L196.4,314.2z"></path><ellipse class="st12" cx="217.8" cy="330.8" rx="7.7" ry="4.1"></ellipse><path class="st12" d="M225.4,328.2v3c0,0-4.5,2.8-7.7,2.5s-7.7-2.9-7.7-2.9v-2.6"></path><ellipse class="st13" cx="217.8" cy="328.2" rx="7.7" ry="4.1"></ellipse><path class="st12" d="M213.6,325.6l10.2,5.4"></path><path class="st12" d="M212.9,325l-0.4,0.2h-0.1l11.2,5.9l0.2-0.3L212.9,325z"></path><ellipse class="st12" cx="150.9" cy="311.3" rx="7.7" ry="4.1"></ellipse><path class="st12" d="M158.5,308.7v3c0,0-4.5,2.8-7.7,2.5s-7.7-2.9-7.7-2.9v-2.6"></path><ellipse class="st13" cx="150.9" cy="308.7" rx="7.7" ry="4.1"></ellipse><path class="st12" d="M146.6,306.1l10.2,5.4"></path><path class="st12" d="M146,305.5l-0.4,0.2h-0.1l11.2,5.9l0.2-0.3L146,305.5z"></path><ellipse class="st12" cx="166.2" cy="320" rx="7.7" ry="4.1"></ellipse><path class="st12" d="M173.8,317.4v3c0,0-4.5,2.8-7.7,2.5s-7.7-2.9-7.7-2.9v-2.6"></path><ellipse class="st13" cx="166.2" cy="317.4" rx="7.7" ry="4.1"></ellipse><path class="st12" d="M162,314.8l10.2,5.4"></path><path class="st12" d="M161.3,314.2l-0.4,0.2h-0.1l11.2,5.9l0.2-0.3L161.3,314.2z"></path><ellipse class="st12" cx="184.4" cy="330.6" rx="7.7" ry="4.1"></ellipse><path class="st12" d="M192,328v3c0,0-4.5,2.8-7.7,2.5s-7.7-2.9-7.7-2.9V328"></path><ellipse class="st13" cx="184.4" cy="328" rx="7.7" ry="4.1"></ellipse><path class="st12" d="M180.1,325.4l10.2,5.4"></path><path class="st12" d="M179.5,324.8l-0.4,0.2h-0.1l11.2,5.9l0.2-0.3L179.5,324.8z"></path><ellipse class="st12" cx="201.2" cy="340.2" rx="7.7" ry="4.1"></ellipse><path class="st12" d="M208.9,337.7v3c0,0-4.5,2.8-7.7,2.5s-7.7-2.9-7.7-2.9v-2.6"></path><ellipse class="st13" cx="201.2" cy="337.7" rx="7.7" ry="4.1"></ellipse><path class="st12" d="M197,335l10.2,5.4"></path><path class="st12" d="M196.4,334.5l-0.4,0.2h-0.1l11.2,5.9l0.2-0.3L196.4,334.5z"></path><ellipse class="st12" cx="210.4" cy="279.1" rx="7.7" ry="4.1"></ellipse><path class="st12" d="M218.1,276.5v3c0,0-4.5,2.8-7.7,2.5s-7.7-2.9-7.7-2.9v-2.6"></path><ellipse class="st13" cx="210.4" cy="276.5" rx="7.7" ry="4.1"></ellipse><path class="st12" d="M206.2,273.9l10.2,5.4"></path><path class="st12" d="M205.6,273.3l-0.4,0.2h-0.1l11.2,5.9l0.2-0.3L205.6,273.3z"></path><ellipse class="st12" cx="226.4" cy="287.7" rx="7.7" ry="4.1"></ellipse><path class="st12" d="M234.1,285.1v3c0,0-4.5,2.8-7.7,2.5s-7.7-3-7.7-3v-2.6"></path><ellipse class="st13" cx="226.4" cy="285.1" rx="7.7" ry="4.1"></ellipse><path class="st12" d="M222.2,282.5l10.2,5.4"></path><path class="st12" d="M221.6,282l-0.4,0.2h-0.1l11.2,5.8l0.2-0.3L221.6,282z"></path><ellipse class="st12" cx="243.3" cy="296" rx="7.7" ry="4.1"></ellipse><path class="st12" d="M251,293.4v3c0,0-4.5,2.8-7.7,2.5s-7.7-2.9-7.7-2.9v-2.6"></path><ellipse class="st13" cx="243.3" cy="293.4" rx="7.7" ry="4.1"></ellipse><path class="st12" d="M239.1,290.8l10.2,5.4"></path><path class="st12" d="M238.5,290.2l-0.4,0.2H238l11.2,5.9l0.2-0.3L238.5,290.2z"></path><ellipse class="st12" cx="259.9" cy="306.8" rx="7.7" ry="4.1"></ellipse><path class="st12" d="M267.5,304.2v3c0,0-4.5,2.8-7.7,2.5s-7.7-2.9-7.7-2.9v-2.6"></path><ellipse class="st13" cx="259.9" cy="304.2" rx="7.7" ry="4.1"></ellipse><path class="st12" d="M255.7,301.6l10.2,5.4"></path><path class="st12" d="M255,301l-0.4,0.2h-0.1l11.2,5.9l0.2-0.3L255,301z"></path><ellipse class="st12" cx="192.9" cy="287.3" rx="7.7" ry="4.1"></ellipse><path class="st12" d="M200.6,284.7v3c0,0-4.5,2.8-7.7,2.5s-7.7-2.9-7.7-2.9v-2.6"></path><ellipse class="st13" cx="192.9" cy="284.7" rx="7.7" ry="4.1"></ellipse><path class="st12" d="M188.7,282.1l10.3,5.4"></path><path class="st12" d="M188.1,281.5l-0.4,0.2h-0.1l11.2,5.9l0.2-0.3L188.1,281.5z"></path><ellipse class="st12" cx="208.3" cy="296" rx="7.7" ry="4.1"></ellipse><path class="st12" d="M215.9,293.4v3c0,0-4.5,2.8-7.7,2.5s-7.7-2.9-7.7-2.9v-2.6"></path><ellipse class="st13" cx="208.3" cy="293.4" rx="7.7" ry="4.1"></ellipse><path class="st12" d="M204.1,290.8l10.2,5.4"></path><path class="st12" d="M203.4,290.2l-0.4,0.2H203l11.2,5.9l0.2-0.3L203.4,290.2z"></path><ellipse class="st12" cx="226.4" cy="306.6" rx="7.7" ry="4.1"></ellipse><path class="st12" d="M234.1,304v3c0,0-4.5,2.8-7.7,2.5s-7.7-2.9-7.7-2.9V304"></path><ellipse class="st13" cx="226.4" cy="304" rx="7.7" ry="4.1"></ellipse><path class="st12" d="M222.2,301.4l10.2,5.4"></path><path class="st12" d="M221.6,300.8l-0.4,0.2h-0.1l11.2,5.9l0.2-0.3L221.6,300.8z"></path><ellipse class="st12" cx="243.3" cy="316.2" rx="7.7" ry="4.1"></ellipse><path class="st12" d="M251,313.7v3c0,0-4.5,2.8-7.7,2.5s-7.7-2.9-7.7-2.9v-2.6"></path><ellipse class="st13" cx="243.3" cy="313.7" rx="7.7" ry="4.1"></ellipse><path class="st12" d="M239.1,311l10.2,5.4"></path><path class="st12" d="M238.5,310.5l-0.4,0.2H238l11.2,5.9l0.2-0.3L238.5,310.5z"></path></g><g id="Medical_Aid_Case"><path class="st14" d="M245,139.3l-23.9-12.6c-0.6-0.5-1.2-0.8-1.9-1l0,0c-1.4-0.4-3-0.2-4.2,0.5l-106.6,60.8
		c-1.7,1-2.8,2.8-2.8,4.8l0.5,72.6c0,1.5,0.6,3,1.8,4l0,0c0.7,0.6,1.5,1.1,2.4,1.3l23.5,12.7c0,0,9-21.3,4.1-25.7
		c-0.3-0.3-0.7-0.5-1.1-0.6l83.5-48.5c1.7-1,2.7-2.8,2.7-4.7v-54.5l0.7,4.3L245,139.3z"></path><path class="st15" d="M245,139.3l-23.9-12.6c-0.6-0.5-1.2-0.8-1.9-1l0,0c-1.4-0.4-3-0.2-4.2,0.5l-106.6,60.8
		c-1.7,1-2.8,2.8-2.8,4.8l0.5,72.6c0,1.5,0.6,3,1.8,4l0,0c0.7,0.6,1.5,1.1,2.4,1.3l23.5,12.7c0,0,9-21.3,4.1-25.7
		c-0.3-0.3-0.7-0.5-1.1-0.6l83.5-48.5c1.7-1,2.7-2.8,2.7-4.7v-54.5l0.7,4.3L245,139.3z"></path><path class="st14" d="M132.8,200.1l106.3-61.2c2.6-1.5,6-0.6,7.5,2c0.5,0.8,0.7,1.7,0.7,2.7l0.3,71.8c0,1.9-1,3.8-2.7,4.7
		l-105.8,62c-2.6,1.5-5.9,0.7-7.5-1.9c-0.5-0.8-0.7-1.8-0.8-2.7l-0.9-72.6C130,202.9,131,201.1,132.8,200.1z"></path><path class="st16" d="M132.8,200.1l106.3-61.2c2.6-1.5,6-0.6,7.5,2c0.5,0.8,0.7,1.7,0.7,2.7l0.3,71.8c0,1.9-1,3.8-2.7,4.7
		l-105.8,62c-2.6,1.5-5.9,0.7-7.5-1.9c-0.5-0.8-0.7-1.8-0.8-2.7l-0.9-72.6C130,202.9,131,201.1,132.8,200.1z"></path><ellipse class="st17" cx="152.1" cy="174.8" rx="6.1" ry="2.6"></ellipse><ellipse class="st17" cx="193.9" cy="154.4" rx="6.1" ry="2.6"></ellipse><path class="st17" d="M187.9,153c0,0.2,0,2,0.2,2.2c1.5,0.4,3.1-0.7,4.6-0.9c1.9-0.3,6.3,1.9,7.2,0.2c0-2.6-0.9-7.7-3-9.5
		c-4.2-3.6-10.4-1.1-14.6,1c-2.7,1.4-5.4,2.9-8.1,4.3c-3.3,1.8-6.6,3.6-9.8,5.5c-3,1.7-5.9,3.6-9.1,5c-1.4,0.6-2.6,1.4-3.8,2.2
		c-3.7,2.8-5.7,7.2-5.5,11.8h12.1v-5.4c-0.2-1.8,0.6-3.6,2.1-4.6c2.6-1.8,25.1-13.7,26.3-13.4S187.7,151.6,187.9,153z"></path><polygon class="st18" points="180.7,187.4 180.7,238.4 198.5,227.5 198.5,177.5 	"></polygon><polygon class="st18" points="168.5,210.7 168.5,228.1 210.7,203.3 210.7,186.3 	"></polygon></g><g id="Doctor_Avatar"><path class="st8" d="M261.8,267.2c0,0,1.4-22.4,1.9-27.9c0.5-5,2.1-27,15.9-33.9c17.4-8.8,37.4-20.2,55.9-14.9
		c15,4.3,20.1,56.2,20,59.7C355.1,256.5,308.6,289.3,261.8,267.2z"></path><path class="st5" d="M292.8,198.8c-4.5,2.2-9,4.5-13.2,6.7c-13.8,7-15.4,28.9-15.9,33.9c-0.5,5.5-1.9,27.9-1.9,27.9
		c15.4,7.2,28.4,10.2,56.7,5.1C318.5,269.8,299.6,223.4,292.8,198.8z"></path><path class="st5" d="M335.5,190.6c-4.3-1.2-8.8-1.6-13.3-1.2c6.5,24.8,11.4,50,14.6,75.4c11.4-5.7,18.5-12.1,18.6-14.5
		C355.6,246.8,350.5,194.9,335.5,190.6z"></path><ellipse class="st17" transform="matrix(0.292 -0.9564 0.9564 0.292 16.8402 480.9334)" cx="333.3" cy="229.1" rx="6.7" ry="6"></ellipse><path class="st17" d="M331.8,224.9c0.6-0.4-0.5-36.3-21.2-34.1s-19,17.5-18.2,25.4l-3.3,0.5c0,0-3.9-27.4,22.6-27.5
		s22.2,37.9,22.2,37.9"></path><path class="st17" d="M292.4,249.9c-3.2-0.1-8.3,0-11-1.8s-2.3-4.2-2-7.4c0.6-7.4,1.2-21,9.7-24c7.4-2.6,13.6,2.8,16.2,9.2
		c1.7,4.2,4.5,11.1,3.4,15.8c-0.8,3.7-4.9,5.7-8.1,7.1c-0.6,0.3-1.1-0.6-0.5-0.9c3.8-1.6,7.8-3.9,7.6-8.5c-0.4-4-1.3-8-2.9-11.8
		c-2.5-6.9-9.3-13.3-16.8-9.3c-6.1,3.3-6.8,15-7.5,21c-0.5,3.9-1,6.5,3.4,8.4c2.4,1.1,5.8,0.9,8.5,1c0.3,0.1,0.4,0.4,0.4,0.6
		C292.7,249.7,292.5,249.8,292.4,249.9L292.4,249.9z"></path><path class="st17" d="M302.4,247.4c0,0.6,0.8,1.5,0,1.9s-3.3,1.5-3.5,0.7s-0.6-2.1,0-2.6S302.4,245.5,302.4,247.4z"></path><path class="st17" d="M293.7,249.2c-0.1,0.6,0.4,1.6-0.4,1.8s-3.5,0.8-3.6-0.1s-0.2-2.2,0.5-2.5S294.1,247.3,293.7,249.2z"></path><path class="st17" d="M327.3,161c0,0,3.7-3,5.8-10s-1.4-17.1-9-18s-9.9,3-9.9,3s-28.1-5-32.5,17.1l0,0c-0.8,6.2-4.2,28.6,14.1,33.5
		s11.7-21.1,11.7-21.1"></path><path class="st13" d="M328.1,156.1c0,0-0.1,14.5,0,19.9c0.1,5.7-2.3,21.1-11.7,20.6s-19-11.4-19-13.9c0,0-9.5-5.9-4.1-10.4
		s5.8,3.1,5.8,3.1s2.9-4.2,3.1-15.5C302.2,159.9,315.6,162,328.1,156.1z"></path><path class="st13" d="M297.9,197.8c4.8,4.4,12.5,5.2,19.7,4.2c1.1-0.1,2-0.9,2.2-2c0.1-2.2,0.2-4.4,0.4-6.6l-24.7-12.1l1.9,15.7
		C297.5,197,297.6,197.3,297.9,197.8z"></path><path class="st12" d="M314.8,202.3c1-0.1,1.9-0.2,2.9-0.3c1.1-0.1,2-0.9,2.1-2c0-1.1,0.1-2.3,0.2-3.4c-5.2,0-14.5-1.2-19.4-10.9
		C301.8,193.4,307.3,199.8,314.8,202.3z"></path><path class="st17" d="M325.1,178.5c-2.9,0-5.3-3.2-5.3-7s2.4-7,5.3-7s5.3,3.1,5.3,7S328,178.5,325.1,178.5z M325.1,165.2
		c-2.5,0-4.5,2.8-4.5,6.3s2,6.3,4.5,6.3s4.5-2.8,4.5-6.3S327.6,165.2,325.1,165.2z"></path><path class="st17" d="M311.3,181.7c-3.2,0-5.8-3.1-5.8-7s2.6-7,5.8-7s5.8,3.1,5.8,7S314.5,181.7,311.3,181.7z M311.3,168.4
		c-2.8,0-5,2.8-5,6.3s2.3,6.3,5,6.3s5-2.8,5-6.3S314.1,168.4,311.3,168.4z"></path><rect class="st17" x="316.7" y="172.9" transform="matrix(0.99 -0.1407 0.1407 0.99 -21.222 46.5432)" width="3.5" height="0.8"></rect><rect class="st17" x="301.7" y="169.7" transform="matrix(0.2424 -0.9702 0.9702 0.2424 60.3246 424.6554)" width="0.8" height="7.9"></rect><path class="st17" d="M292,274.8c-1.3-3-3.2-19.6-3.2-19.6v19.2L292,274.8z"></path></g></svg>