<svg transform="scale(2)" version="1.1" id="Layer_1" xmlns="http://www.w3.org/2000/svg" xmlns:xlink="http://www.w3.org/1999/xlink" x="0px" y="0px" viewBox="0 0 500 500" xml:space="preserve" class="show_show__wrapper__graphic__5Waiy "><title>React</title><style type="text/css">
	.st0{fill:#339e92;}
	.st1{fill:url(#SVGID_1_);}
	.st2{fill:url(#SVGID_00000008856672115176023290000000372274985229588101_);}
	.st3{fill:#FFFFFF;}
	.st4{fill:#8ad1e2;}
	.st5{fill:#053855;}
	.st6{opacity:0.1;fill:#053855;enable-background:new    ;}
	.st7{opacity:0.5;fill:#FFFFFF;enable-background:new    ;}
	.st8{opacity:0.32;fill:url(#SVGID_00000083767247460955999770000007182982925199699844_);enable-background:new    ;}
	.st9{fill:#ff0000;}
	.st10{fill:#EE6300;}
	.st11{fill:#FFB5A9;}
	.st12{fill:#0F2D2A;}
	.st13{fill:#FFE8BC;}
	.st14{opacity:0.42;fill:#053855;enable-background:new    ;}
</style><g id="background"><path class="st0" d="M241.6,399.8l-224-132.4c-7.1-4-13.2-10.6-6.3-14.9L236.1,123c3.4-2.1,8.5-3.5,11.9-1.5L483.2,258
		c7.1,4.1,8.4,15.7,1.3,19.8L271.1,399.6C262,404.9,250.8,404.9,241.6,399.8z"></path><linearGradient id="SVGID_1_" gradientUnits="userSpaceOnUse" x1="446.7613" y1="221.7809" x2="417.3913" y2="265.1108" gradientTransform="matrix(1 0 0 -1 0 502)"><stop offset="0" style="stop-color: rgb(57, 174, 162);"></stop><stop offset="1" style="stop-color: rgb(12, 36, 34);"></stop></linearGradient><path class="st1" d="M428.6,229.4l-46.2,26.9l57.8,37.3l44.6-28.3C469.8,254.4,443.8,239.9,428.6,229.4z"></path><linearGradient id="SVGID_00000120548564770348046860000010084760851559733647_" gradientUnits="userSpaceOnUse" x1="329.4807" y1="158.5405" x2="304.2207" y2="195.8005" gradientTransform="matrix(1 0 0 -1 0 502)"><stop offset="0" style="stop-color: rgb(57, 174, 162);"></stop><stop offset="1" style="stop-color: rgb(12, 36, 34);"></stop></linearGradient><polyline points="214.4,363.3 261.9,393.9 
		428,299.2 375.3,269.8 	" style="fill: url(&quot;#SVGID_00000120548564770348046860000010084760851559733647_&quot;);"></polyline></g><g id="laptop"><polyline class="st3" points="378.1,274.2 378.1,279 375.6,282 	"></polyline><path class="st4" d="M280.9,215.2l94.5,58.5c2.7,1.7,3.6,5.3,1.9,8.1c-0.5,0.8-1.2,1.5-2.1,2L231.8,365c-4.1,2.3-9.1,2.3-13.1-0.1
		l-94-55.3c-6.8-5.6-6.3-16.2,0.1-16.6l142.5-78C271.4,212.6,276.7,212.7,280.9,215.2z"></path><path class="st3" d="M280.9,211.2l94.5,58.5c2.7,1.7,3.6,5.3,1.9,8.1c-0.5,0.8-1.2,1.5-2.1,2l-143.3,81.1
		c-4.1,2.3-9.1,2.3-13.1-0.1l-94-55.3c-3.5-2-4.6-6.5-2.6-10c0.6-1.1,1.6-2,2.6-2.6L267.2,211C271.4,208.6,276.7,208.6,280.9,211.2z
		"></path><path class="st5" d="M277,203.2c0,0-39.2-126.6-39-126.6s-1.2-5.6-8.2-2.4L79.2,162.8c0,0-7.3,3-5.9,9.8s38.3,123.9,38.3,123.9
		c1.6,2.3,4.5,3.3,7.1,2.5c4.6-1.4,154.6-88.6,154.6-88.6S278.5,208.4,277,203.2z"></path><polygon class="st4" points="235.5,85.8 81.3,175.7 113.3,283 269.5,195.8 	"></polygon><path class="st4" d="M286.6,224.6l34.5,21.5c2,1.2,2.6,3.8,1.3,5.7c-0.4,0.6-0.9,1.1-1.5,1.4l-124,70.7c-3.8,2.2-8.4,2.1-12.2,0
		c-8-4.6-21.7-13-30.1-18.2c-2.4-1.5-3.1-4.6-1.7-7c0.4-0.7,1.1-1.3,1.8-1.7c25.1-14.6,106.9-62.1,124.8-72.5
		C281.8,223.3,284.5,223.3,286.6,224.6z"></path><path class="st4" d="M284.8,283l-43.3,24.4c-2.1,1.2-2.8,3.8-1.7,5.9c0.4,0.7,0.9,1.2,1.6,1.6l25.5,14.9c1.8,1,4,1,5.8,0l44.4-25.2
		c1.7-1,2.3-3.2,1.3-4.9c-0.3-0.6-0.8-1-1.3-1.3l-26.5-15.2C288.7,282,286.6,282,284.8,283z"></path><path class="st6" d="M286.6,224.6l34.5,21.5c2,1.2,2.6,3.8,1.3,5.7c-0.4,0.6-0.9,1.1-1.5,1.4l-124,70.7c-3.8,2.2-8.4,2.1-12.2,0
		c-8-4.6-21.7-13-30.1-18.2c-2.4-1.5-3.1-4.6-1.7-7c0.4-0.7,1.1-1.3,1.8-1.7c25.1-14.6,106.9-62.1,124.8-72.5
		C281.8,223.3,284.5,223.3,286.6,224.6z"></path><path class="st6" d="M284.8,283l-43.3,24.4c-2.1,1.2-2.8,3.8-1.7,5.9c0.4,0.7,0.9,1.2,1.6,1.6l25.5,14.9c1.8,1,4,1,5.8,0l44.4-25.2
		c1.7-1,2.3-3.2,1.3-4.9c-0.3-0.6-0.8-1-1.3-1.3l-26.5-15.2C288.7,282,286.6,282,284.8,283z"></path><path class="st5" d="M123.8,181.6c0.8,0.9,1.3,2,1.6,3.1c0.1,0.4,0.1,0.8-0.1,1.2c-0.1,0.3-0.4,0.6-0.7,0.8l-6.2,3.4
		c0.3,0.8,0.9,1.5,1.7,1.9c0.7,0.3,1.4,0.3,2.1-0.1c0.4-0.2,0.8-0.5,1.2-0.8c0.2-0.2,0.4-0.5,0.6-0.8c0.1-0.2,0.2-0.4,0.3-0.5
		c0.1-0.2,0.3-0.4,0.6-0.6c0.2-0.2,0.5-0.2,0.8,0c0.3,0.2,0.5,0.5,0.6,0.8c0.1,0.5,0.1,1.1-0.2,1.6c-0.3,0.7-0.6,1.3-1.1,1.8
		c-0.5,0.6-1,1-1.7,1.4c-1.8,1.2-4.2,0.7-5.5-1c-0.8-1-1.4-2.1-1.7-3.3c-0.4-1.4-0.6-2.9-0.4-4.3c0.1-1.3,0.4-2.5,1-3.6
		c0.5-0.9,1.2-1.7,2.1-2.2c0.8-0.4,1.7-0.6,2.6-0.3C122.3,180.2,123.2,180.8,123.8,181.6z M122.7,184.8v-0.2
		c-0.2-0.7-0.7-1.2-1.3-1.5c-0.6-0.3-1.2-0.2-1.8,0.1c-1.4,0.8-2,2.2-1.7,4.3L122.7,184.8"></path><path class="st5" d="M116.1,195.9c0.2,0.2,0.3,0.4,0.3,0.6c0.1,0.3,0.1,0.7,0,1c-0.1,0.4-0.4,0.8-0.7,0.9c-0.3,0.2-0.6,0.2-0.9,0.2
		c-1.1-0.2-2-1.4-2.6-3.7c-0.1-0.5-0.4-1-0.9-1.2c-0.5-0.2-1-0.2-1.4,0.1l-3.5,1.9l1.4,5.1c0.1,0.4,0.2,0.9,0.1,1.3
		c-0.1,0.4-0.3,0.7-0.6,0.8c-0.3,0.2-0.7,0.2-1.1,0.1c-0.4-0.2-0.6-0.5-0.7-0.9l-4.3-15.2c-0.1-0.4-0.1-0.9,0-1.3
		c0.1-0.4,0.3-0.7,0.7-0.9l5.4-2.9c0.6-0.3,1.3-0.4,2-0.3c0.8,0.2,1.5,0.7,2,1.3c0.6,0.8,1.1,1.7,1.3,2.6c0.3,0.9,0.3,1.9,0.2,2.8
		c-0.1,0.9-0.3,1.9-0.8,2.7c1.1,0.4,1.9,1.3,2.2,2.4c0.1,0.3,0.2,0.5,0.3,0.8c0.1,0.4,0.3,0.7,0.5,1.1c0.1,0.2,0.3,0.3,0.5,0.4
		C115.7,195.7,115.9,195.8,116.1,195.9z M110.5,188.6c0-0.6-0.1-1.2-0.2-1.7c-0.1-0.5-0.3-0.9-0.6-1.3c-0.2-0.3-0.5-0.5-0.8-0.7
		c-0.2-0.1-0.5-0.1-0.8,0l-4.1,2.2l1.7,6l4.1-2.2c0.3-0.2,0.5-0.5,0.5-0.8C110.5,189.6,110.5,189.1,110.5,188.6"></path><path class="st5" d="M143.6,170.8c0.8,0.9,1.3,2,1.6,3.1c0.1,0.4,0.1,0.8-0.1,1.2c-0.1,0.3-0.4,0.6-0.7,0.8l-6.2,3.4
		c0.3,0.8,0.9,1.5,1.7,1.9c0.6,0.3,1.4,0.2,2-0.1c0.4-0.2,0.8-0.5,1.1-0.8c0.2-0.2,0.4-0.5,0.6-0.8c0.1-0.2,0.2-0.4,0.3-0.5
		c0.1-0.2,0.3-0.4,0.6-0.6c0.2-0.2,0.5-0.2,0.8,0c0.3,0.2,0.5,0.4,0.6,0.8c0.1,0.5,0.1,1.1-0.2,1.6c-0.3,0.7-0.6,1.3-1.1,1.8
		c-0.5,0.6-1,1-1.6,1.4c-0.9,0.5-2,0.7-3,0.6c-1-0.2-1.9-0.8-2.5-1.6c-0.8-1-1.4-2.1-1.7-3.3c-0.4-1.4-0.6-2.9-0.5-4.3
		c0.1-1.3,0.4-2.5,1-3.6c0.5-0.9,1.2-1.7,2.1-2.2c0.8-0.4,1.7-0.6,2.6-0.3C142.1,169.4,143,170,143.6,170.8z M142.5,174l-0.1-0.2
		c-0.2-0.7-0.7-1.2-1.3-1.5c-0.6-0.3-1.2-0.2-1.8,0.1c-1.4,0.8-2,2.2-1.7,4.3L142.5,174"></path><path class="st5" d="M128.6,174.9c0.6-0.3,1.3-0.5,2.1-0.5c0.7,0,1.4,0.2,1.9,0.7c0.3,0.2,0.4,0.5,0.5,0.8c0.1,0.4,0.1,0.8-0.1,1.2
		c-0.1,0.3-0.3,0.5-0.5,0.6c-0.2,0.2-0.5,0.2-0.8,0c-0.3-0.3-0.7-0.4-1.1-0.4c-0.5,0-0.9,0.1-1.3,0.3c-0.9,0.4-1.3,1.3-1,2.2
		c0.1,0.3,0.3,0.6,0.5,0.8c0.2,0.1,0.5,0.2,0.8,0.2c0.3,0,0.7-0.1,1.3-0.1c0.6-0.1,1.3-0.1,1.9-0.1c0.6,0,1.1,0.3,1.5,0.7
		c0.6,0.5,0.9,1.2,1.1,2c0.2,0.8,0.3,1.7,0.1,2.5c-0.2,0.8-0.5,1.6-1,2.2c-0.4,0.6-1,1.1-1.6,1.5c-0.7,0.4-1.6,0.7-2.5,0.7
		c-0.8,0-1.7-0.3-2.3-0.9c-0.2-0.2-0.3-0.4-0.4-0.7c-0.1-0.5,0-1,0.2-1.4c0.1-0.2,0.3-0.4,0.5-0.5c0.3-0.1,0.6-0.1,0.9,0.1
		c0.5,0.3,1,0.5,1.5,0.6c0.6,0,1.1-0.1,1.6-0.4c0.9-0.4,1.3-1.4,1-2.4c-0.1-0.4-0.4-0.8-0.8-0.9c-0.6-0.1-1.2-0.1-1.8,0.1
		c-0.7,0.1-1.3,0.1-2,0.1c-0.6,0-1.1-0.3-1.5-0.6c-0.6-0.5-1-1.2-1.2-2c-0.2-0.8-0.3-1.6-0.1-2.5c0.2-0.8,0.5-1.5,0.9-2.2
		C127.4,175.8,128,175.3,128.6,174.9z"></path><path class="st5" d="M173.9,144.4c0.3-0.2,0.7-0.2,0.9,0c0.3,0.2,0.6,0.6,0.6,1l1.6,5.8c0.2-0.8,0.4-1.6,0.8-2.3
		c0.3-0.7,0.9-1.2,1.5-1.6c1.2-0.7,2.2-0.6,3,0.2c1,1.2,1.7,2.5,2,4l1.9,6.7c0.1,0.4,0.1,0.9,0,1.3c-0.1,0.4-0.3,0.7-0.7,0.9
		c-0.3,0.2-0.6,0.2-0.9,0c-0.3-0.2-0.6-0.6-0.6-1l-1.9-6.7c-0.2-0.8-0.5-1.5-1.1-2.1c-0.5-0.4-1.1-0.4-1.6-0.1
		c-0.7,0.4-1.2,1-1.4,1.8c-0.2,0.8-0.2,1.7,0.1,2.5l1.9,6.7c0.1,0.4,0.1,0.9,0,1.3c-0.1,0.4-0.3,0.7-0.7,0.9c-0.3,0.2-0.6,0.2-0.9,0
		c-0.3-0.2-0.6-0.6-0.6-1l-4.6-16.2c-0.1-0.4-0.1-0.9,0-1.3C173.4,144.9,173.6,144.6,173.9,144.4z"></path><path class="st5" d="M169,153c0.8-0.5,1.8-0.8,2.8-0.7c0.7,0.1,1.3,0.6,1.5,1.3c0.1,0.4,0.1,0.8,0.1,1.1c0,0.3-0.2,0.6-0.5,0.8
		c-0.2,0.1-0.3,0.1-0.5,0.1c-0.2,0-0.3-0.1-0.5-0.1c-0.1-0.1-0.3-0.1-0.4-0.1c-0.2,0-0.4,0-0.6,0.1c-0.2,0-0.4,0.1-0.6,0.2
		c-0.9,0.5-1.6,1.4-1.8,2.4c-0.3,1.2-0.3,2.4,0.1,3.6c0.2,1.1,0.8,2,1.7,2.7c0.7,0.5,1.7,0.6,2.4,0.1c0.5-0.2,0.9-0.6,1.3-1.1
		c0.1-0.1,0.2-0.3,0.2-0.4c0.1-0.2,0.2-0.3,0.3-0.5c0.1-0.1,0.2-0.3,0.4-0.3c0.3-0.2,0.6-0.2,0.9,0c0.3,0.2,0.5,0.6,0.6,0.9
		c0.1,0.5,0,1-0.2,1.5c-0.3,0.6-0.7,1.2-1.1,1.6c-0.5,0.5-1.1,1-1.7,1.3c-0.8,0.5-1.9,0.7-2.8,0.4c-1-0.3-1.8-0.9-2.4-1.7
		c-0.8-1-1.3-2.2-1.6-3.4c-0.4-1.3-0.6-2.7-0.4-4.1c0.1-1.2,0.4-2.4,1-3.5C167.2,154.3,168,153.5,169,153z"></path><path class="st5" d="M162.1,156.7c0.3-0.2,0.7-0.2,1.1-0.1c0.3,0.2,0.6,0.5,0.7,0.9c0.1,0.5,0.1,0.9,0,1.4
		c-0.1,0.3-0.3,0.6-0.6,0.8c-0.2,0.1-0.4,0.2-0.7,0.2h-0.3c-0.2,0-0.3,0.1-0.4,0.1c-0.4,0.2-0.6,0.5-0.8,0.9
		c-0.2,0.5-0.4,1.1-0.4,1.7c0,0.7,0.1,1.5,0.3,2.2l1.8,6.2c0.1,0.4,0.1,0.9,0,1.3c-0.1,0.4-0.3,0.7-0.7,0.9c-0.3,0.2-0.6,0.2-0.9,0
		c-0.3-0.2-0.6-0.6-0.6-1l-3.1-10.9c-0.1-0.4-0.1-0.9,0-1.3c0.1-0.4,0.3-0.7,0.7-0.9c0.3-0.2,0.7-0.2,0.9,0c0.3,0.2,0.6,0.6,0.6,1
		l0.1,0.3c0.1-0.8,0.3-1.6,0.8-2.3C160.9,157.5,161.5,157,162.1,156.7z"></path><path class="st5" d="M154.3,161.5c0.3,0.2,0.6,0.6,0.6,1l3.2,11.1c0.1,0.4,0.1,0.9,0,1.3c-0.1,0.4-0.3,0.7-0.7,0.9
		c-0.3,0.2-0.6,0.2-0.9,0c-0.3-0.2-0.6-0.6-0.6-0.9c-0.2,0.7-0.5,1.4-0.9,2c-0.4,0.6-0.9,1.1-1.5,1.4c-0.8,0.5-1.7,0.6-2.6,0.3
		c-1-0.3-1.8-0.9-2.4-1.7c-0.8-1-1.4-2.2-1.7-3.4c-0.4-1.3-0.5-2.7-0.5-4.1c0.1-1.2,0.4-2.4,0.9-3.5c0.4-0.9,1.1-1.7,2-2.2
		c0.6-0.3,1.2-0.5,1.8-0.5c0.6,0,1.2,0.2,1.7,0.4c-0.1-0.4-0.1-0.9,0-1.3c0.1-0.4,0.3-0.7,0.7-0.9
		C153.6,161.3,154,161.3,154.3,161.5z M154.5,172.9c0.3-1.2,0.2-2.4-0.1-3.6c-0.2-1.1-0.8-2-1.7-2.7c-0.7-0.6-1.6-0.6-2.3-0.2
		c-0.8,0.5-1.4,1.3-1.6,2.3c-0.3,1.2-0.2,2.4,0.1,3.6c0.2,1.1,0.8,2,1.6,2.7c0.7,0.6,1.6,0.6,2.3,0.2
		C153.8,174.7,154.4,173.9,154.5,172.9"></path><path class="st7" d="M108.6,216.5l100.9-58.8c1.3-0.8,3-0.3,3.7,1c0.1,0.2,0.2,0.4,0.3,0.7l0,0c0.3,1.2-0.2,2.5-1.2,3.1
		l-100.7,59.5c-1.3,0.8-3,0.3-3.7-1c-0.1-0.2-0.2-0.4-0.3-0.6l-0.2-0.7C107,218.4,107.5,217.1,108.6,216.5z"></path><path class="st3" d="M211.3,147.4c-7.9,0-14.4-7.6-14.4-17s6.4-17,14.4-17s14.4,7.6,14.4,17S219.2,147.4,211.3,147.4z M211.3,118.3
		c-5.2,0-9.4,5.4-9.4,12s4.2,12.1,9.4,12.1s9.4-5.4,9.4-12.1S216.5,118.3,211.3,118.3z"></path><path class="st3" d="M238.7,136.9l-13.3-5.1c-3.3-1.3-5.3,3.9-2,5.1l13.3,5.1C240,143.3,242,138.2,238.7,136.9z"></path><path class="st7" d="M159.5,203.2l-47.1,27.5c-1.1,0.6-1.6,1.9-1.2,3.1l0.2,0.7c0.4,1.4,1.9,2.3,3.4,1.9c0.2-0.1,0.4-0.2,0.6-0.3
		l46.9-27.7c1-0.6,1.5-1.6,1.5-2.8v-0.1c-0.1-1.6-1.4-2.8-3-2.7C160.3,202.8,159.9,203,159.5,203.2z"></path><path class="st7" d="M214.6,171.8l-47.1,27.5c-1.1,0.6-1.6,1.9-1.2,3.1l0.2,0.7c0.4,1.4,1.9,2.3,3.4,1.9c0.2-0.1,0.4-0.2,0.6-0.3
		l46.9-27.7c1-0.6,1.5-1.6,1.5-2.8v-0.1c-0.1-1.6-1.4-2.8-2.9-2.7C215.5,171.5,215,171.6,214.6,171.8z"></path><path class="st7" d="M165.9,216.3l-47.1,27.5c-1.1,0.6-1.6,1.9-1.2,3.1l0.2,0.7c0.4,1.4,1.9,2.3,3.4,1.9c0.2-0.1,0.4-0.2,0.6-0.3
		l46.9-27.7c1-0.6,1.6-1.6,1.5-2.8v-0.1c-0.1-1.6-1.4-2.8-3-2.7C166.7,216,166.3,216.1,165.9,216.3z"></path></g><g id="character"><linearGradient id="SVGID_00000114033914140674787550000008537791617274045864_" gradientUnits="userSpaceOnUse" x1="-1585.0199" y1="203.0199" x2="-1570.3499" y2="223.8799" gradientTransform="matrix(-1 0 0 -1 -1328.39 502)"><stop offset="0" style="stop-color: rgb(255, 255, 255); stop-opacity: 0;"></stop><stop offset="1" style="stop-color: rgb(23, 97, 158);"></stop></linearGradient><polyline points="
		209.1,278.2 256.5,308.9 283.7,290.7 235.1,266.6 	" style="opacity: 0.32; fill: url(&quot;#SVGID_00000114033914140674787550000008537791617274045864_&quot;);"></polyline><path class="st9" d="M229.2,161.2c4,3.5,7.1,8,8.9,13c3.1,8.6-4.7,22.7-4.7,22.7l-12.1-9.6"></path><path class="st5" d="M230.6,275.4l3.3-1.8l-0.8-4.7c0,0-4.9,0.5-5.3,2.2"></path><path class="st4" d="M229.4,275.3c-0.7-0.5-1.5-0.9-2.3-1.3c-1.9-1-4.7-2.1-5.8-4.1c-0.5-0.8-0.4-1.8,0.1-2.6
		c1.7-2.1,5.5,1.3,7.4-1c0.4-0.5,0.6-7.7,0.6-7.7l7.4,2c0,0,1.2,14.6,1.1,15.5s-2.7,1.8-2.7,1.8c-0.7-0.2-1.5-0.4-2.1-0.8
		c-0.8-0.6-0.1-7.4-1.1-6.4s-1.4,4.7-1.4,4.7C230.2,275.4,229.8,275.3,229.4,275.3z"></path><path class="st5" d="M216.5,282.4l3.3-1.8l-0.8-4.7c0,0-4.9,0.5-5.3,2.2"></path><path class="st4" d="M215.3,282.3c-0.7-0.5-1.5-0.9-2.3-1.3c-1.9-1-4.6-2.1-5.8-4.1c-0.5-0.8-0.4-1.8,0.1-2.6
		c1.7-2.1,5.5,1.3,7.4-1c0.4-0.5,0.6-7.7,0.6-7.7l7.4,2c0,0,1.2,14.6,1.1,15.5s-2.7,1.8-2.7,1.8c-0.8-0.2-1.5-0.4-2.1-0.8
		c-0.8-0.6-0.1-7.4-1-6.4s-1.4,4.7-1.4,4.7C216.1,282.4,215.7,282.4,215.3,282.3z"></path><path class="st10" d="M240.5,235l2.1,29c0,0-3.4,4.8-15,2.1l0,0l-0.1-19.5"></path><path class="st10" d="M227.1,240.7c0.2,2.5,0,30,0,30s-3.2,6-17.1,0l0.2-23.4"></path><path class="st10" d="M241.6,244.6c-0.9,0.6-1.3-2.7-2.3-2.1c-3.6,2.1-7.4,3.8-11.4,5h-0.1c-0.4-0.2-0.9,0-1.1,0.4c0,0,0,0,0,0
		c-2.5,0.7-5,1.3-7.5,1.7c-3.2,0.5-6-1.9-9.3-2.1c0-12.8-0.1-49.2,5.4-56.9l16.1-5.4c0.1,1.3,7.8,10.3,7.6,21.2
		c-0.2,12.3,1.4,24,1.7,27.8C240.8,234.9,241.5,243.9,241.6,244.6z"></path><path class="st9" d="M213.8,175.8l1.5,14.7c0,0,12,0.5,17.2-3.1V175"></path><path class="st11" d="M193.4,162.2l1.2,1.7c-0.7-1.4-1.2-2.8-1.7-4.2c-0.3-1,1.2-1.4,1.6-0.4l0.2,0.5c-0.2-0.5-0.3-1-0.4-1.6
		c-0.1-0.4,0.2-0.9,0.7-0.9c0.4-0.1,0.7,0.2,0.9,0.5c0.3,1.4,0.7,2.7,1.2,4c-0.3-1.2-0.5-2.3-0.6-3.5c-0.1-1,1.5-1,1.6,0
		c0.1,1.4,0.4,2.7,0.7,4c0-0.5,0.1-0.9,0.1-1.4c0-0.2,0.1-0.4,0.3-0.6c0-0.2,0.1-0.4,0.1-0.5c0.1-0.4,0.6-0.7,1-0.5
		c0.3,0.1,0.6,0.4,0.6,0.8l0.1,6.1c0.3,0.6,0.7,1.2,1.1,1.7c-0.8,0.6-1.5,1.1-2.2,1.8c-0.6,0.6-1.3,1.1-1.8,1.8
		c-0.5-0.6-1-1.3-1.5-2c-0.1-0.1-0.1-0.1-0.1-0.2c-1.4-2.1-2.9-4.2-4.5-6.3C191.4,162.2,192.8,161.4,193.4,162.2z"></path><path class="st9" d="M218.9,159.6c0,0-5.7,1.5-8,5.2c-1.4,2.5-2.7,5.2-3.8,7.9l-4.2-6.5c0,0-5.1,1.6-7.1,4.1c0,0,6,13.2,11.3,14.3
		s10.9-7.8,10.9-7.8s1.2,3.7,0.9-0.2"></path><path class="st12" d="M215.6,176.7c1.2-1.7,2-3.8,2.1-5.9c0-2.4-1.3-4.2-2.7-6c-1.4-1.8-2.5-3.9-3.2-6.1c-0.6-2.2-1.1-4.4-1.5-6.6
		c0-0.1-0.1-0.2-0.1-0.3c0-2.7,1-5.1,3.8-6.2c7.5-2.8,10.3,5.6,11.2,9s1.2,5.9,4.1,6.6s5.8,4,4.3,7.7s0.3,2,2.7,4.3s2.9,5.8-0.1,7.9
		s-19,4.1-20.8,3.1c-0.7-0.4-1.1-1.1-1.3-1.9C213.8,180.4,214.4,178.3,215.6,176.7z"></path></g><g id="book"><polyline class="st13" points="388.6,148.2 377,154.4 408.7,184.2 436.6,193 446,180.4 	"></polyline><polyline class="st4" points="432.4,186.7 443.1,180.6 388.6,148.2 389.9,147.5 446,180.4 446,264.6 433.7,271.5 429,266.7 	"></polyline><polyline class="st14" points="432.4,186.7 443.1,180.6 388.6,148.2 389.9,147.5 446,180.4 446,264.6 433.7,271.5 429,266.7 	"></polyline><polygon class="st4" points="377,154.4 433.7,187.5 433.7,271.5 376.1,237.1 	"></polygon><polygon class="st9" points="431.6,182 428.1,184.1 428.1,202.1 425.9,199.3 424.4,201 424.4,182 427.6,179.7 	"></polygon><polyline class="st13" points="353.7,143.5 342,149.7 373.8,179.5 401.7,188.3 411,175.7 	"></polyline><polyline class="st4" points="397.4,182 408.2,175.8 353.7,143.5 354.9,142.8 411,175.7 411,259.9 398.8,266.8 394.1,262 	"></polyline><polyline class="st14" points="397.4,182 408.2,175.8 353.7,143.5 354.9,142.8 411,175.7 411,259.9 398.8,266.8 394.1,262 	"></polyline><polygon class="st4" points="342,149.7 398.8,182.8 398.8,266.8 341.1,232.4 	"></polygon><polygon class="st9" points="396.6,177.2 393.2,179.4 393.2,197.4 391,194.5 389.4,196.3 389.4,177.3 392.7,175 	"></polygon></g></svg>